<svg width="40" height="41" viewBox="0 0 40 41" fill="none" xmlns="http://www.w3.org/2000/svg">
<path d="M12.4053 9.698C13.4703 9.698 14.4553 9.78133 15.3553 10.028C16.257 10.193 16.9953 10.523 17.6503 10.9347C18.307 11.3469 18.7987 11.9241 19.1253 12.6663C19.4537 13.408 19.6187 14.3163 19.6187 15.3047C19.6187 16.4597 19.372 17.448 18.7987 18.1897C18.307 18.933 17.487 19.5913 16.5037 20.0863C17.897 20.4997 18.962 21.2413 19.6187 22.2297C20.2753 23.218 20.6837 24.4563 20.6837 25.858C20.6837 27.013 20.437 28.0013 20.027 28.8263C19.6187 29.6513 18.962 30.393 18.2237 30.888C17.4213 31.418 16.5348 31.8079 15.602 32.0413C14.6187 32.2897 13.6353 32.4547 12.652 32.4547H1.66699V9.698H12.4053ZM11.7487 18.9313C12.6503 18.9313 13.3887 18.6847 13.962 18.273C14.5353 17.8613 14.782 17.118 14.782 16.2113C14.782 15.7163 14.6987 15.2213 14.5353 14.893C14.372 14.5647 14.1253 14.3147 13.7987 14.068C13.4647 13.8804 13.1054 13.7418 12.732 13.6563C12.322 13.573 11.9137 13.573 11.4203 13.573H6.66699V18.933L11.7487 18.9313ZM11.9953 28.6613C12.487 28.6613 12.9787 28.578 13.3887 28.4963C13.7987 28.413 14.2087 28.2497 14.5353 28.0013C14.868 27.7586 15.1471 27.45 15.3553 27.0947C15.5187 26.683 15.6837 26.188 15.6837 25.6113C15.6837 24.4563 15.3553 23.6313 14.7003 23.0547C14.0437 22.5597 13.142 22.313 12.077 22.313H6.66699V28.663L11.9953 28.6613ZM27.8153 28.578C28.4709 29.238 29.4542 29.568 30.7653 29.568C31.667 29.568 32.487 29.3213 33.142 28.9097C33.7987 28.4141 34.2087 27.9191 34.372 27.4247H38.3887C37.732 29.403 36.7487 30.8047 35.4387 31.7113C34.1253 32.5363 32.5687 33.0313 30.6837 33.0313C29.4778 33.0331 28.2822 32.8093 27.1587 32.3713C26.1472 31.9941 25.2456 31.3709 24.5353 30.558C23.7725 29.8002 23.2096 28.8651 22.897 27.8363C22.487 26.7647 22.322 25.6113 22.322 24.2913C22.322 23.0547 22.487 21.9013 22.897 20.828C23.2903 19.794 23.8743 18.8431 24.6187 18.0247C25.3553 17.283 26.257 16.6247 27.2403 16.2113C28.3349 15.7718 29.5041 15.5477 30.6837 15.5513C32.077 15.5513 33.307 15.7997 34.372 16.3763C35.4387 16.953 36.257 17.613 36.912 18.603C37.5687 19.5097 38.062 20.5813 38.3887 21.7363C38.552 22.8897 38.6337 24.0447 38.552 25.363H26.667C26.667 26.683 27.1587 27.9197 27.8153 28.5797M32.9787 19.923C32.4053 19.3463 31.5037 19.0163 30.437 19.0163C29.8116 19.007 29.1931 19.1481 28.6337 19.428C28.142 19.6763 27.8153 20.0063 27.487 20.3363C27.1834 20.6538 26.9834 21.056 26.9137 21.4897C26.8303 21.903 26.7487 22.2313 26.7487 22.5613H34.1253C33.962 21.3247 33.552 20.5013 32.9787 19.923ZM25.7653 11.2647H34.9453V13.4913H25.767L25.7653 11.2647Z" fill="black"/>
<g opacity="0.01">
<path d="M16.7731 23.7812V12.3362C16.0801 13.0712 15.0511 13.1763 13.7491 13.1763V11.8952C16.2901 11.8322 16.8991 11.0342 17.0671 9.27025H18.2851V23.7812H16.7731ZM30.4565 23.7812H20.6285C20.6285 21.0932 22.2875 19.0982 24.9125 17.6282C27.5585 16.1162 29.0075 15.4862 29.0075 13.2812C29.0075 11.8532 28.3145 10.3412 26.0885 10.3412C23.5685 10.3412 22.6235 12.1052 22.6235 14.1632H21.0485C21.0485 11.3492 22.6865 8.99725 26.1095 8.99725C28.5875 8.99725 30.6035 10.5512 30.6035 13.2602C30.6035 16.0112 28.4405 17.2712 26.3195 18.4682C24.5555 19.4762 22.7285 20.4632 22.4555 22.3953V22.4372H30.4565V23.7812Z" fill="white"/>
<path d="M13.4971 24.4113H31.5065V25.4403H13.4971V24.4113Z" fill="white"/>
</g>
<a href="https://behance.net/bareenparvez">
<rect fill="black" fill-opacity="0" x="4.49707" y="-5.103" width="18.0095" height="25.2"/>
</a>
</svg>
