<svg width="32" height="33" viewBox="0 0 32 33" fill="none" xmlns="http://www.w3.org/2000/svg">
<g clip-path="url(#clip0_51_95)">
<mask id="mask0_51_95" style="mask-type:luminance" maskUnits="userSpaceOnUse" x="0" y="0" width="32" height="33">
<path d="M0 0.78125H32V32.7812H0V0.78125Z" fill="white"/>
</mask>
<g mask="url(#mask0_51_95)">
<path fill-rule="evenodd" clip-rule="evenodd" d="M16 0.78125C7.16667 0.78125 0 7.94792 0 16.7812C0 25.6146 7.16667 32.7812 16 32.7812C24.816 32.7812 32 25.6146 32 16.7812C32 7.94792 24.816 0.78125 16 0.78125ZM26.568 8.15592C28.5382 10.5549 29.6283 13.5557 29.6573 16.6599C29.2067 16.5733 24.6947 15.6532 20.148 16.2266C20.0427 15.9999 19.956 15.7573 19.852 15.5146C19.569 14.8472 19.2684 14.1875 18.9507 13.5359C23.9827 11.4879 26.2733 8.53858 26.568 8.15592ZM16 3.14258C19.4707 3.14258 22.6467 4.44258 25.0587 6.57725C24.816 6.92392 22.7507 9.68392 17.892 11.5053C15.652 7.39325 13.172 4.02525 12.7893 3.50525C13.8417 3.25921 14.9193 3.13705 16 3.14125M10.1867 4.42392C10.5507 4.91058 12.98 8.29458 15.2533 12.3199C8.86667 14.0213 3.22667 13.9866 2.62 13.9866C3.50533 9.75192 6.36933 6.22925 10.1867 4.42392ZM2.32533 16.7973V16.3813C2.916 16.3986 9.544 16.4852 16.3653 14.4373C16.764 15.2013 17.128 15.9813 17.4747 16.7626C17.3013 16.8146 17.1107 16.8666 16.9373 16.9186C9.892 19.1919 6.14267 25.4053 5.83067 25.9253C3.57432 23.4203 2.32557 20.1686 2.32533 16.7973ZM16 30.4559C12.9627 30.4607 10.0115 29.4466 7.61867 27.5759C7.86133 27.0719 10.6373 21.7266 18.3427 19.0373C18.3773 19.0199 18.396 19.0199 18.4293 19.0026C20.356 23.9826 21.136 28.1653 21.3453 29.3626C19.696 30.0746 17.892 30.4559 16 30.4559ZM23.6187 28.1133C23.48 27.2799 22.7507 23.2892 20.9627 18.3773C25.2493 17.7013 28.9973 18.8119 29.4667 18.9679C28.876 22.7679 26.6893 26.0479 23.6187 28.1133Z" fill="black"/>
</g>
<g opacity="0.01">
<path d="M10.7731 19.7812V8.33625C10.0801 9.07125 9.05107 9.17625 7.74907 9.17625V7.89525C10.2901 7.83225 10.8991 7.03425 11.0671 5.27025H12.2851V19.7812H10.7731ZM24.4565 19.7812H14.6285C14.6285 17.0932 16.2875 15.0982 18.9125 13.6282C21.5585 12.1162 23.0075 11.4862 23.0075 9.28125C23.0075 7.85325 22.3145 6.34125 20.0885 6.34125C17.5685 6.34125 16.6235 8.10525 16.6235 10.1632H15.0485C15.0485 7.34925 16.6865 4.99725 20.1095 4.99725C22.5875 4.99725 24.6035 6.55125 24.6035 9.26025C24.6035 12.0112 22.4405 13.2712 20.3195 14.4682C18.5555 15.4762 16.7285 16.4632 16.4555 18.3953V18.4372H24.4565V19.7812Z" fill="white"/>
<path d="M7.49707 20.4113H25.5065V21.4403H7.49707V20.4113Z" fill="white"/>
</g>
<a href="https://dribbble.com/bareenparvez">
<rect fill="black" fill-opacity="0" x="4.49707" y="-5.103" width="18.0095" height="25.2"/>
</a>
</g>
<defs>
<clipPath id="clip0_51_95">
<rect width="32" height="32" fill="white" transform="translate(0 0.78125)"/>
</clipPath>
</defs>
</svg>
