<svg width="36" height="37" viewBox="0 0 36 37" fill="none" xmlns="http://www.w3.org/2000/svg">
<g opacity="0.01">
<path d="M13.6233 23.8813V12.4363C12.9303 13.1713 11.9013 13.2763 10.5993 13.2763V11.9953C13.1403 11.9323 13.7493 11.1343 13.9173 9.37035H15.1353V23.8813H13.6233ZM27.3067 23.8813H17.4787C17.4787 21.1933 19.1377 19.1983 21.7627 17.7283C24.4087 16.2163 25.8577 15.5863 25.8577 13.3813C25.8577 11.9533 25.1647 10.4413 22.9387 10.4413C20.4187 10.4413 19.4737 12.2053 19.4737 14.2633H17.8987C17.8987 11.4493 19.5367 9.09735 22.9597 9.09735C25.4377 9.09735 27.4537 10.6513 27.4537 13.3603C27.4537 16.1113 25.2907 17.3713 23.1697 18.5683C21.4057 19.5763 19.5787 20.5633 19.3057 22.4953V22.5373H27.3067V23.8813Z" fill="white"/>
<path d="M10.3473 24.5113H28.3567V25.5403H10.3473V24.5113Z" fill="white"/>
</g>
<a href="https://www.instagram.com/grapheendesigns/">
<rect fill="black" fill-opacity="0" x="3.14707" y="-5.103" width="18.0095" height="25.2"/>
</a>
<path d="M11.7 3.78125H24.3C29.1 3.78125 33 7.68125 33 12.4812V25.0812C33 27.3886 32.0834 29.6015 30.4518 31.2331C28.8203 32.8646 26.6074 33.7812 24.3 33.7812H11.7C6.9 33.7812 3 29.8812 3 25.0812V12.4812C3 10.1739 3.9166 7.96099 5.54817 6.32942C7.17974 4.69785 9.39262 3.78125 11.7 3.78125ZM11.4 6.78125C9.96783 6.78125 8.59432 7.35018 7.58162 8.36287C6.56893 9.37557 6 10.7491 6 12.1812V25.3812C6 28.3662 8.415 30.7812 11.4 30.7812H24.6C26.0322 30.7812 27.4057 30.2123 28.4184 29.1996C29.4311 28.1869 30 26.8134 30 25.3812V12.1812C30 9.19625 27.585 6.78125 24.6 6.78125H11.4ZM25.875 9.03125C26.3723 9.03125 26.8492 9.22879 27.2008 9.58042C27.5525 9.93205 27.75 10.409 27.75 10.9062C27.75 11.4035 27.5525 11.8804 27.2008 12.2321C26.8492 12.5837 26.3723 12.7812 25.875 12.7812C25.3777 12.7812 24.9008 12.5837 24.5492 12.2321C24.1975 11.8804 24 11.4035 24 10.9062C24 10.409 24.1975 9.93205 24.5492 9.58042C24.9008 9.22879 25.3777 9.03125 25.875 9.03125ZM18 11.2812C19.9891 11.2812 21.8968 12.0714 23.3033 13.4779C24.7098 14.8845 25.5 16.7921 25.5 18.7812C25.5 20.7704 24.7098 22.678 23.3033 24.0845C21.8968 25.4911 19.9891 26.2812 18 26.2812C16.0109 26.2812 14.1032 25.4911 12.6967 24.0845C11.2902 22.678 10.5 20.7704 10.5 18.7812C10.5 16.7921 11.2902 14.8845 12.6967 13.4779C14.1032 12.0714 16.0109 11.2812 18 11.2812ZM18 14.2812C16.8065 14.2812 15.6619 14.7554 14.818 15.5993C13.9741 16.4432 13.5 17.5878 13.5 18.7812C13.5 19.9747 13.9741 21.1193 14.818 21.9632C15.6619 22.8071 16.8065 23.2812 18 23.2812C19.1935 23.2812 20.3381 22.8071 21.182 21.9632C22.0259 21.1193 22.5 19.9747 22.5 18.7812C22.5 17.5878 22.0259 16.4432 21.182 15.5993C20.3381 14.7554 19.1935 14.2812 18 14.2812Z" fill="black"/>
</svg>
