<svg width="40" height="41" viewBox="0 0 40 41" fill="none" xmlns="http://www.w3.org/2000/svg">
<g opacity="0.01">
<path d="M13.7731 24.7812V13.3362C13.0801 14.0712 12.0511 14.1763 10.7491 14.1763V12.8952C13.2901 12.8322 13.8991 12.0342 14.0671 10.2702H15.2851V24.7812H13.7731ZM27.4565 24.7812H17.6285C17.6285 22.0932 19.2875 20.0982 21.9125 18.6282C24.5585 17.1162 26.0075 16.4862 26.0075 14.2812C26.0075 12.8532 25.3145 11.3412 23.0885 11.3412C20.5685 11.3412 19.6235 13.1052 19.6235 15.1632H18.0485C18.0485 12.3492 19.6865 9.99725 23.1095 9.99725C25.5875 9.99725 27.6035 11.5512 27.6035 14.2602C27.6035 17.0112 25.4405 18.2712 23.3195 19.4682C21.5555 20.4762 19.7285 21.4632 19.4555 23.3953V23.4372H27.4565V24.7812Z" fill="white"/>
<path d="M10.4971 25.4113H28.5065V26.4403H10.4971V25.4113Z" fill="white"/>
</g>
<a href="https://www.linkedin.com/in/bareen-parvez-74b473163/">
<rect fill="black" fill-opacity="0" x="4.49707" y="-5.103" width="18.0095" height="25.2"/>
</a>
<path d="M30.56 31.3463H26.1183V24.3846C26.1183 22.7246 26.085 20.5879 23.8017 20.5879C21.4867 20.5879 21.1333 22.3946 21.1333 24.2629V31.3463H16.69V17.0312H20.9567V18.9812H21.015C21.6117 17.8579 23.0617 16.6696 25.2283 16.6696C29.7283 16.6696 30.5617 19.6329 30.5617 23.4896L30.56 31.3463ZM11.6733 15.0729C11.3343 15.0734 10.9984 15.0069 10.6851 14.8773C10.3718 14.7477 10.0871 14.5575 9.84743 14.3176C9.60774 14.0778 9.41775 13.793 9.28835 13.4796C9.15895 13.1662 9.09267 12.8303 9.09333 12.4913C9.09366 11.981 9.2453 11.4823 9.52907 11.0582C9.81284 10.6341 10.216 10.3036 10.6875 10.1087C11.1591 9.9137 11.6779 9.86294 12.1783 9.96282C12.6787 10.0627 13.1383 10.3087 13.4988 10.6698C13.8594 11.0308 14.1049 11.4907 14.2041 11.9912C14.3033 12.4918 14.2519 13.0105 14.0563 13.4818C13.8607 13.9531 13.5298 14.3558 13.1053 14.639C12.6809 14.9223 12.1819 15.0732 11.6717 15.0729M13.8983 31.3463H9.445V17.0312H13.9L13.8983 31.3463ZM32.7833 5.78125H7.21667C5.99 5.78125 5 6.74792 5 7.94292V33.6196C5 34.8146 5.99 35.7812 7.21333 35.7812H32.7783C34 35.7812 35 34.8146 35 33.6196V7.94292C35 6.74958 34 5.78125 32.7767 5.78125H32.7833Z" fill="black"/>
</svg>
