<svg width="27" height="19" viewBox="0 0 27 19" fill="none" xmlns="http://www.w3.org/2000/svg">
<path d="M26.1562 7.81147H23.2116L18.2018 0.912758C18.05 0.704321 17.8524 0.533448 17.6243 0.41326C17.3961 0.293071 17.1435 0.226765 16.8857 0.219432C16.628 0.2121 16.372 0.263936 16.1374 0.370961C15.9028 0.477985 15.6958 0.637351 15.5324 0.836821L14.1771 2.40831L14.156 2.43256C14.0775 2.53122 13.9777 2.61089 13.8641 2.66565C13.7506 2.72041 13.6261 2.74885 13.5 2.74885C13.3739 2.74885 13.2494 2.72041 13.1359 2.66565C13.0223 2.61089 12.9225 2.53122 12.844 2.43256L12.8229 2.40831L11.4676 0.836821C11.3042 0.637351 11.0972 0.477985 10.8626 0.370961C10.628 0.263936 10.372 0.2121 10.1143 0.219432C9.85651 0.226765 9.60386 0.293071 9.37572 0.41326C9.14758 0.533448 8.95002 0.704321 8.7982 0.912758L3.78844 7.81147H0.84375C0.619974 7.81147 0.405362 7.90036 0.247129 8.0586C0.0888949 8.21683 0 8.43144 0 8.65522C0 8.879 0.0888949 9.09361 0.247129 9.25184C0.405362 9.41007 0.619974 9.49897 0.84375 9.49897H26.1562C26.38 9.49897 26.5946 9.41007 26.7529 9.25184C26.9111 9.09361 27 8.879 27 8.65522C27 8.43144 26.9111 8.21683 26.7529 8.0586C26.5946 7.90036 26.38 7.81147 26.1562 7.81147ZM10.1609 1.90522L10.1809 1.92948L11.5362 3.49991C11.7735 3.79176 12.0729 4.02705 12.4126 4.18865C12.7524 4.35025 13.1238 4.4341 13.5 4.4341C13.8762 4.4341 14.2476 4.35025 14.5874 4.18865C14.9271 4.02705 15.2265 3.79176 15.4638 3.49991L16.8191 1.92948C16.8254 1.92104 16.8296 1.91366 16.837 1.90522L21.1254 7.81147H5.87355L10.1609 1.90522ZM18.9844 11.1865C18.0506 11.1867 17.1496 11.531 16.4536 12.1536C15.7576 12.7762 15.3155 13.6334 15.2118 14.5615H11.7882C11.6842 13.6343 11.2425 12.7779 10.5473 12.1556C9.85213 11.5333 8.95217 11.1888 8.01917 11.1878C7.08617 11.1868 6.18546 11.5293 5.48892 12.1501C4.79238 12.7708 4.34877 13.6263 4.24275 14.5532C4.13673 15.4802 4.37572 16.4137 4.91411 17.1757C5.45251 17.9377 6.25261 18.4748 7.16174 18.6844C8.07087 18.8941 9.02538 18.7617 9.84312 18.3125C10.6609 17.8633 11.2846 17.1287 11.5952 16.249H15.4048C15.6368 16.9053 16.0448 17.4851 16.5841 17.9252C17.1235 18.3653 17.7734 18.6486 18.4629 18.7442C19.1524 18.8398 19.8549 18.7441 20.4936 18.4674C21.1324 18.1907 21.6828 17.7438 22.0847 17.1754C22.4865 16.6071 22.7244 15.9392 22.7724 15.2447C22.8203 14.5503 22.6764 13.856 22.3564 13.2378C22.0363 12.6197 21.5526 12.1014 20.9579 11.7396C20.3632 11.3778 19.6805 11.1864 18.9844 11.1865ZM8.01562 17.0927C7.59843 17.0927 7.1906 16.969 6.84372 16.7372C6.49683 16.5054 6.22647 16.176 6.06682 15.7906C5.90716 15.4051 5.86539 14.981 5.94678 14.5718C6.02817 14.1626 6.22907 13.7868 6.52407 13.4918C6.81907 13.1968 7.19493 12.9959 7.60411 12.9145C8.01328 12.8331 8.43741 12.8749 8.82285 13.0345C9.20829 13.1942 9.53773 13.4646 9.76951 13.8114C10.0013 14.1583 10.125 14.5661 10.125 14.9833C10.125 15.2604 10.0704 15.5346 9.96443 15.7906C9.85843 16.0465 9.70305 16.279 9.50718 16.4749C9.31131 16.6708 9.07877 16.8261 8.82285 16.9322C8.56693 17.0382 8.29263 17.0927 8.01562 17.0927ZM18.9844 17.0927C18.5672 17.0927 18.1594 16.969 17.8125 16.7372C17.4656 16.5054 17.1952 16.176 17.0356 15.7906C16.8759 15.4051 16.8341 14.981 16.9155 14.5718C16.9969 14.1626 17.1978 13.7868 17.4928 13.4918C17.7878 13.1968 18.1637 12.9959 18.5729 12.9145C18.982 12.8331 19.4062 12.8749 19.7916 13.0345C20.177 13.1942 20.5065 13.4646 20.7383 13.8114C20.97 14.1583 21.0938 14.5661 21.0938 14.9833C21.0938 15.5428 20.8715 16.0793 20.4759 16.4749C20.0803 16.8705 19.5438 17.0927 18.9844 17.0927Z" fill="#EFECEC"/>
</svg>
