<svg width="18" height="37" viewBox="0 0 18 37" fill="none" xmlns="http://www.w3.org/2000/svg">
<path d="M17.5274 3.29316L3.69445 17.3482C3.39106 17.6548 3.2209 18.0688 3.2209 18.5002C3.2209 18.9315 3.39106 19.3455 3.69445 19.6522L17.5244 33.7072C17.8277 34.0157 17.9976 34.431 17.9976 34.8637C17.9976 35.2963 17.8277 35.7116 17.5244 36.0202C17.3763 36.1721 17.1993 36.2929 17.0037 36.3753C16.8082 36.4578 16.5982 36.5002 16.3859 36.5002C16.1737 36.5002 15.9637 36.4578 15.7682 36.3753C15.5726 36.2929 15.3956 36.1721 15.2474 36.0202L1.41745 21.9682C0.508671 21.0426 -0.000487438 19.7973 -0.000487494 18.5002C-0.000487551 17.203 0.50867 15.9577 1.41745 15.0322L15.2474 0.980158C15.3956 0.827752 15.5729 0.706605 15.7687 0.623881C15.9645 0.541157 16.1749 0.498534 16.3874 0.498534C16.6 0.498534 16.8104 0.541157 17.0062 0.623881C17.202 0.706605 17.3793 0.827752 17.5274 0.980158C17.8307 1.28872 18.0006 1.70404 18.0006 2.13666C18.0006 2.56928 17.8307 2.98459 17.5274 3.29316Z" fill="black"/>
</svg>
