<svg width="18" height="37" viewBox="0 0 18 37" fill="none" xmlns="http://www.w3.org/2000/svg">
<path d="M0.472511 3.29316L14.3055 17.3482C14.6089 17.6548 14.7791 18.0688 14.7791 18.5002C14.7791 18.9315 14.6089 19.3455 14.3055 19.6522L0.47551 33.7072C0.172284 34.0157 0.00237507 34.431 0.00237505 34.8637C0.00237504 35.2963 0.172284 35.7116 0.47551 36.0202C0.623642 36.1721 0.800688 36.2929 0.99622 36.3753C1.19175 36.4578 1.40181 36.5002 1.61401 36.5002C1.82621 36.5002 2.03627 36.4578 2.2318 36.3753C2.42733 36.2929 2.60438 36.1721 2.75251 36.0202L16.5825 21.9682C17.4913 21.0426 18.0004 19.7973 18.0004 18.5002C18.0004 17.203 17.4913 15.9577 16.5825 15.0322L2.75251 0.980158C2.60433 0.827752 2.4271 0.706605 2.23129 0.623881C2.03549 0.541157 1.82508 0.498534 1.61251 0.498534C1.39995 0.498534 1.18954 0.541157 0.993732 0.623881C0.797924 0.706605 0.620689 0.827752 0.472511 0.980158C0.169283 1.28872 -0.000625663 1.70404 -0.000625682 2.13666C-0.000625701 2.56928 0.169283 2.98459 0.472511 3.29316Z" fill="black"/>
</svg>
