<svg width="1536" height="571" viewBox="0 0 1536 571" fill="none" xmlns="http://www.w3.org/2000/svg">
<g opacity="0.6">
<g filter="url(#filter0_f_8_30386)">
<circle cx="319.465" cy="541.465" r="141.465" fill="#928771"/>
</g>
<g filter="url(#filter1_f_8_30386)">
<circle cx="436.929" cy="551.15" r="141.465" fill="#FDFF91" fill-opacity="0.5"/>
</g>
</g>
<g opacity="0.65">
<rect x="0.636792" y="-0.636792" width="114.877" height="113.858" rx="9.55189" transform="matrix(1 0 0 -1 0 571.481)" stroke="white" stroke-width="1.27358"/>
<rect x="0.636792" y="-0.636792" width="114.877" height="113.858" rx="9.55189" transform="matrix(1 0 0 -1 115.132 571.481)" stroke="white" stroke-width="1.27358"/>
<rect x="0.636792" y="-0.636792" width="114.877" height="113.858" rx="9.55189" transform="matrix(1 0 0 -1 230.264 571.481)" stroke="white" stroke-width="1.27358"/>
<rect x="0.636792" y="-0.636792" width="114.877" height="113.858" rx="9.55189" transform="matrix(1 0 0 -1 345.396 571.481)" stroke="white" stroke-width="1.27358"/>
<rect x="0.636792" y="-0.636792" width="114.877" height="113.858" rx="9.55189" transform="matrix(1 0 0 -1 460.528 571.481)" stroke="white" stroke-width="1.27358"/>
<rect x="0.636792" y="-0.636792" width="114.877" height="113.858" rx="9.55189" transform="matrix(1 0 0 -1 575.66 571.481)" stroke="white" stroke-width="1.27358"/>
<rect x="0.636792" y="-0.636792" width="114.877" height="113.858" rx="9.55189" transform="matrix(1 0 0 -1 690.792 571.481)" stroke="white" stroke-width="1.27358"/>
<rect x="0.636792" y="-0.636792" width="114.877" height="113.858" rx="9.55189" transform="matrix(1 0 0 -1 805.925 571.481)" stroke="white" stroke-width="1.27358"/>
<rect x="0.636792" y="-0.636792" width="114.877" height="113.858" rx="9.55189" transform="matrix(1 0 0 -1 921.057 571.481)" stroke="white" stroke-width="1.27358"/>
<rect x="0.636792" y="-0.636792" width="114.877" height="113.858" rx="9.55189" transform="matrix(1 0 0 -1 1036.19 571.481)" stroke="white" stroke-width="1.27358"/>
<rect x="0.636792" y="-0.636792" width="114.877" height="113.858" rx="9.55189" transform="matrix(1 0 0 -1 1151.32 571.481)" stroke="white" stroke-width="1.27358"/>
<rect x="0.636792" y="-0.636792" width="114.877" height="113.858" rx="9.55189" transform="matrix(1 0 0 -1 1266.45 571.481)" stroke="white" stroke-width="1.27358"/>
<rect x="0.636792" y="-0.636792" width="114.877" height="113.858" rx="9.55189" transform="matrix(1 0 0 -1 1381.58 571.481)" stroke="white" stroke-width="1.27358"/>
<rect x="0.636792" y="-0.636792" width="114.877" height="113.858" rx="9.55189" transform="matrix(1 0 0 -1 1496.72 571.481)" stroke="white" stroke-width="1.27358"/>
<rect x="0.636792" y="-0.636792" width="114.877" height="113.858" rx="9.55189" transform="matrix(1 0 0 -1 0 457.33)" stroke="white" stroke-width="1.27358"/>
<rect x="0.636792" y="-0.636792" width="114.877" height="113.858" rx="9.55189" transform="matrix(1 0 0 -1 115.132 457.33)" stroke="white" stroke-width="1.27358"/>
<rect x="0.636792" y="-0.636792" width="114.877" height="113.858" rx="9.55189" transform="matrix(1 0 0 -1 230.264 457.33)" stroke="white" stroke-width="1.27358"/>
<rect x="0.636792" y="-0.636792" width="114.877" height="113.858" rx="9.55189" transform="matrix(1 0 0 -1 345.396 457.33)" stroke="white" stroke-width="1.27358"/>
<rect x="0.636792" y="-0.636792" width="114.877" height="113.858" rx="9.55189" transform="matrix(1 0 0 -1 460.528 457.33)" stroke="white" stroke-width="1.27358"/>
<rect x="0.636792" y="-0.636792" width="114.877" height="113.858" rx="9.55189" transform="matrix(1 0 0 -1 575.66 457.33)" stroke="white" stroke-width="1.27358"/>
<rect x="0.636792" y="-0.636792" width="114.877" height="113.858" rx="9.55189" transform="matrix(1 0 0 -1 690.792 457.33)" stroke="white" stroke-width="1.27358"/>
<rect x="0.636792" y="-0.636792" width="114.877" height="113.858" rx="9.55189" transform="matrix(1 0 0 -1 805.925 457.33)" stroke="white" stroke-width="1.27358"/>
<rect x="0.636792" y="-0.636792" width="114.877" height="113.858" rx="9.55189" transform="matrix(1 0 0 -1 921.057 457.33)" stroke="white" stroke-width="1.27358"/>
<rect x="0.636792" y="-0.636792" width="114.877" height="113.858" rx="9.55189" transform="matrix(1 0 0 -1 1036.19 457.33)" stroke="white" stroke-width="1.27358"/>
<rect x="0.636792" y="-0.636792" width="114.877" height="113.858" rx="9.55189" transform="matrix(1 0 0 -1 1151.32 457.33)" stroke="white" stroke-width="1.27358"/>
<rect x="0.636792" y="-0.636792" width="114.877" height="113.858" rx="9.55189" transform="matrix(1 0 0 -1 1266.45 457.33)" stroke="white" stroke-width="1.27358"/>
<rect x="0.636792" y="-0.636792" width="114.877" height="113.858" rx="9.55189" transform="matrix(1 0 0 -1 1381.58 457.33)" stroke="white" stroke-width="1.27358"/>
<rect x="0.636792" y="-0.636792" width="114.877" height="113.858" rx="9.55189" transform="matrix(1 0 0 -1 1496.72 457.33)" stroke="white" stroke-width="1.27358"/>
<rect x="0.636792" y="-0.636792" width="114.877" height="113.858" rx="9.55189" transform="matrix(1 0 0 -1 0 343.18)" stroke="white" stroke-width="1.27358"/>
<rect x="0.636792" y="-0.636792" width="114.877" height="113.858" rx="9.55189" transform="matrix(1 0 0 -1 115.132 343.18)" stroke="white" stroke-width="1.27358"/>
<rect x="0.636792" y="-0.636792" width="114.877" height="113.858" rx="9.55189" transform="matrix(1 0 0 -1 230.264 343.18)" stroke="white" stroke-width="1.27358"/>
<rect x="0.636792" y="-0.636792" width="114.877" height="113.858" rx="9.55189" transform="matrix(1 0 0 -1 345.396 343.18)" stroke="white" stroke-width="1.27358"/>
<rect x="0.636792" y="-0.636792" width="114.877" height="113.858" rx="9.55189" transform="matrix(1 0 0 -1 460.528 343.18)" stroke="white" stroke-width="1.27358"/>
<rect x="0.636792" y="-0.636792" width="114.877" height="113.858" rx="9.55189" transform="matrix(1 0 0 -1 575.66 343.18)" stroke="white" stroke-width="1.27358"/>
<rect x="0.636792" y="-0.636792" width="114.877" height="113.858" rx="9.55189" transform="matrix(1 0 0 -1 690.792 343.18)" stroke="white" stroke-width="1.27358"/>
<rect x="0.636792" y="-0.636792" width="114.877" height="113.858" rx="9.55189" transform="matrix(1 0 0 -1 805.925 343.18)" stroke="white" stroke-width="1.27358"/>
<rect x="0.636792" y="-0.636792" width="114.877" height="113.858" rx="9.55189" transform="matrix(1 0 0 -1 921.057 343.18)" stroke="white" stroke-width="1.27358"/>
<rect x="0.636792" y="-0.636792" width="114.877" height="113.858" rx="9.55189" transform="matrix(1 0 0 -1 1036.19 343.18)" stroke="white" stroke-width="1.27358"/>
<rect x="0.636792" y="-0.636792" width="114.877" height="113.858" rx="9.55189" transform="matrix(1 0 0 -1 1151.32 343.18)" stroke="white" stroke-width="1.27358"/>
<rect x="0.636792" y="-0.636792" width="114.877" height="113.858" rx="9.55189" transform="matrix(1 0 0 -1 1266.45 343.18)" stroke="white" stroke-width="1.27358"/>
<rect x="0.636792" y="-0.636792" width="114.877" height="113.858" rx="9.55189" transform="matrix(1 0 0 -1 1381.58 343.18)" stroke="white" stroke-width="1.27358"/>
<rect x="0.636792" y="-0.636792" width="114.877" height="113.858" rx="9.55189" transform="matrix(1 0 0 -1 1496.72 343.18)" stroke="white" stroke-width="1.27358"/>
<rect x="0.636792" y="-0.636792" width="114.877" height="113.858" rx="9.55189" transform="matrix(1 0 0 -1 0 229.029)" stroke="white" stroke-width="1.27358"/>
<rect x="0.636792" y="-0.636792" width="114.877" height="113.858" rx="9.55189" transform="matrix(1 0 0 -1 115.132 229.029)" stroke="white" stroke-width="1.27358"/>
<rect x="0.636792" y="-0.636792" width="114.877" height="113.858" rx="9.55189" transform="matrix(1 0 0 -1 230.264 229.029)" stroke="white" stroke-width="1.27358"/>
<rect x="0.636792" y="-0.636792" width="114.877" height="113.858" rx="9.55189" transform="matrix(1 0 0 -1 345.396 229.029)" stroke="white" stroke-width="1.27358"/>
<rect x="0.636792" y="-0.636792" width="114.877" height="113.858" rx="9.55189" transform="matrix(1 0 0 -1 460.528 229.029)" stroke="white" stroke-width="1.27358"/>
<rect x="0.636792" y="-0.636792" width="114.877" height="113.858" rx="9.55189" transform="matrix(1 0 0 -1 575.66 229.029)" stroke="white" stroke-width="1.27358"/>
<rect x="0.636792" y="-0.636792" width="114.877" height="113.858" rx="9.55189" transform="matrix(1 0 0 -1 690.792 229.029)" stroke="white" stroke-width="1.27358"/>
<rect x="0.636792" y="-0.636792" width="114.877" height="113.858" rx="9.55189" transform="matrix(1 0 0 -1 805.925 229.029)" stroke="white" stroke-width="1.27358"/>
<rect x="0.636792" y="-0.636792" width="114.877" height="113.858" rx="9.55189" transform="matrix(1 0 0 -1 921.057 229.029)" stroke="white" stroke-width="1.27358"/>
<rect x="0.636792" y="-0.636792" width="114.877" height="113.858" rx="9.55189" transform="matrix(1 0 0 -1 1036.19 229.029)" stroke="white" stroke-width="1.27358"/>
<rect x="0.636792" y="-0.636792" width="114.877" height="113.858" rx="9.55189" transform="matrix(1 0 0 -1 1151.32 229.029)" stroke="white" stroke-width="1.27358"/>
<rect x="0.636792" y="-0.636792" width="114.877" height="113.858" rx="9.55189" transform="matrix(1 0 0 -1 1266.45 229.029)" stroke="white" stroke-width="1.27358"/>
<rect x="0.636792" y="-0.636792" width="114.877" height="113.858" rx="9.55189" transform="matrix(1 0 0 -1 1381.58 229.029)" stroke="white" stroke-width="1.27358"/>
<rect x="0.636792" y="-0.636792" width="114.877" height="113.858" rx="9.55189" transform="matrix(1 0 0 -1 1496.72 229.029)" stroke="white" stroke-width="1.27358"/>
<rect x="0.636792" y="-0.636792" width="114.877" height="113.858" rx="9.55189" transform="matrix(1 0 0 -1 0 114.878)" stroke="white" stroke-width="1.27358"/>
<rect x="0.636792" y="-0.636792" width="114.877" height="113.858" rx="9.55189" transform="matrix(1 0 0 -1 115.132 114.878)" stroke="white" stroke-width="1.27358"/>
<rect x="0.636792" y="-0.636792" width="114.877" height="113.858" rx="9.55189" transform="matrix(1 0 0 -1 230.264 114.878)" stroke="white" stroke-width="1.27358"/>
<rect x="0.636792" y="-0.636792" width="114.877" height="113.858" rx="9.55189" transform="matrix(1 0 0 -1 345.396 114.878)" stroke="white" stroke-width="1.27358"/>
<rect x="0.636792" y="-0.636792" width="114.877" height="113.858" rx="9.55189" transform="matrix(1 0 0 -1 460.528 114.878)" stroke="white" stroke-width="1.27358"/>
<rect x="0.636792" y="-0.636792" width="114.877" height="113.858" rx="9.55189" transform="matrix(1 0 0 -1 575.66 114.878)" stroke="white" stroke-width="1.27358"/>
<rect x="0.636792" y="-0.636792" width="114.877" height="113.858" rx="9.55189" transform="matrix(1 0 0 -1 690.792 114.878)" stroke="white" stroke-width="1.27358"/>
<rect x="0.636792" y="-0.636792" width="114.877" height="113.858" rx="9.55189" transform="matrix(1 0 0 -1 805.925 114.878)" stroke="white" stroke-width="1.27358"/>
<rect x="0.636792" y="-0.636792" width="114.877" height="113.858" rx="9.55189" transform="matrix(1 0 0 -1 921.057 114.878)" stroke="white" stroke-width="1.27358"/>
<rect x="0.636792" y="-0.636792" width="114.877" height="113.858" rx="9.55189" transform="matrix(1 0 0 -1 1036.19 114.878)" stroke="white" stroke-width="1.27358"/>
<rect x="0.636792" y="-0.636792" width="114.877" height="113.858" rx="9.55189" transform="matrix(1 0 0 -1 1151.32 114.878)" stroke="white" stroke-width="1.27358"/>
<rect x="0.636792" y="-0.636792" width="114.877" height="113.858" rx="9.55189" transform="matrix(1 0 0 -1 1266.45 114.878)" stroke="white" stroke-width="1.27358"/>
<rect x="0.636792" y="-0.636792" width="114.877" height="113.858" rx="9.55189" transform="matrix(1 0 0 -1 1381.58 114.878)" stroke="white" stroke-width="1.27358"/>
<rect x="0.636792" y="-0.636792" width="114.877" height="113.858" rx="9.55189" transform="matrix(1 0 0 -1 1496.72 114.878)" stroke="white" stroke-width="1.27358"/>
</g>
<defs>
<filter id="filter0_f_8_30386" x="-187.528" y="34.4716" width="1013.99" height="1013.99" filterUnits="userSpaceOnUse" color-interpolation-filters="sRGB">
<feFlood flood-opacity="0" result="BackgroundImageFix"/>
<feBlend mode="normal" in="SourceGraphic" in2="BackgroundImageFix" result="shape"/>
<feGaussianBlur stdDeviation="182.764" result="effect1_foregroundBlur_8_30386"/>
</filter>
<filter id="filter1_f_8_30386" x="-70.064" y="44.1567" width="1013.99" height="1013.99" filterUnits="userSpaceOnUse" color-interpolation-filters="sRGB">
<feFlood flood-opacity="0" result="BackgroundImageFix"/>
<feBlend mode="normal" in="SourceGraphic" in2="BackgroundImageFix" result="shape"/>
<feGaussianBlur stdDeviation="182.764" result="effect1_foregroundBlur_8_30386"/>
</filter>
</defs>
</svg>
