<svg width="1536" height="741" viewBox="0 0 1536 741" fill="none" xmlns="http://www.w3.org/2000/svg">
<rect x="0.653376" y="-0.653376" width="117.869" height="116.824" rx="9.80063" transform="matrix(1 0 0 -1 0 586.363)" stroke="white" stroke-width="1.30675"/>
<rect x="0.653376" y="-0.653376" width="117.869" height="116.824" rx="9.80063" transform="matrix(1 0 0 -1 118.13 586.363)" stroke="white" stroke-width="1.30675"/>
<rect x="0.653376" y="-0.653376" width="117.869" height="116.824" rx="9.80063" transform="matrix(1 0 0 -1 236.261 586.363)" stroke="white" stroke-width="1.30675"/>
<rect x="0.653376" y="-0.653376" width="117.869" height="116.824" rx="9.80063" transform="matrix(1 0 0 -1 354.391 586.363)" stroke="white" stroke-width="1.30675"/>
<rect x="0.653376" y="-0.653376" width="117.869" height="116.824" rx="9.80063" transform="matrix(1 0 0 -1 472.521 586.363)" stroke="white" stroke-width="1.30675"/>
<rect x="0.653376" y="-0.653376" width="117.869" height="116.824" rx="9.80063" transform="matrix(1 0 0 -1 590.652 586.363)" stroke="white" stroke-width="1.30675"/>
<rect x="0.653376" y="-0.653376" width="117.869" height="116.824" rx="9.80063" transform="matrix(1 0 0 -1 708.782 586.363)" stroke="white" stroke-width="1.30675"/>
<rect x="0.653376" y="-0.653376" width="117.869" height="116.824" rx="9.80063" transform="matrix(1 0 0 -1 826.912 586.363)" stroke="white" stroke-width="1.30675"/>
<rect x="0.653376" y="-0.653376" width="117.869" height="116.824" rx="9.80063" transform="matrix(1 0 0 -1 945.042 586.363)" stroke="white" stroke-width="1.30675"/>
<rect x="0.653376" y="-0.653376" width="117.869" height="116.824" rx="9.80063" transform="matrix(1 0 0 -1 1063.17 586.363)" stroke="white" stroke-width="1.30675"/>
<rect x="0.653376" y="-0.653376" width="117.869" height="116.824" rx="9.80063" transform="matrix(1 0 0 -1 1181.3 586.363)" stroke="white" stroke-width="1.30675"/>
<rect x="0.653376" y="-0.653376" width="117.869" height="116.824" rx="9.80063" transform="matrix(1 0 0 -1 1299.43 586.363)" stroke="white" stroke-width="1.30675"/>
<rect x="0.653376" y="-0.653376" width="117.869" height="116.824" rx="9.80063" transform="matrix(1 0 0 -1 1417.56 586.363)" stroke="white" stroke-width="1.30675"/>
<rect x="0.653376" y="-0.653376" width="117.869" height="116.824" rx="9.80063" transform="matrix(1 0 0 -1 1535.69 586.363)" stroke="white" stroke-width="1.30675"/>
<rect x="0.653376" y="-0.653376" width="117.869" height="116.824" rx="9.80063" transform="matrix(1 0 0 -1 0 469.239)" stroke="white" stroke-width="1.30675"/>
<rect x="0.653376" y="-0.653376" width="117.869" height="116.824" rx="9.80063" transform="matrix(1 0 0 -1 118.13 469.239)" stroke="white" stroke-width="1.30675"/>
<rect x="0.653376" y="-0.653376" width="117.869" height="116.824" rx="9.80063" transform="matrix(1 0 0 -1 236.261 469.239)" stroke="white" stroke-width="1.30675"/>
<rect x="0.653376" y="-0.653376" width="117.869" height="116.824" rx="9.80063" transform="matrix(1 0 0 -1 354.391 469.239)" stroke="white" stroke-width="1.30675"/>
<rect x="0.653376" y="-0.653376" width="117.869" height="116.824" rx="9.80063" transform="matrix(1 0 0 -1 472.521 469.239)" stroke="white" stroke-width="1.30675"/>
<rect x="0.653376" y="-0.653376" width="117.869" height="116.824" rx="9.80063" transform="matrix(1 0 0 -1 590.652 469.239)" stroke="white" stroke-width="1.30675"/>
<rect x="0.653376" y="-0.653376" width="117.869" height="116.824" rx="9.80063" transform="matrix(1 0 0 -1 708.782 469.239)" stroke="white" stroke-width="1.30675"/>
<rect x="0.653376" y="-0.653376" width="117.869" height="116.824" rx="9.80063" transform="matrix(1 0 0 -1 826.912 469.239)" stroke="white" stroke-width="1.30675"/>
<rect x="0.653376" y="-0.653376" width="117.869" height="116.824" rx="9.80063" transform="matrix(1 0 0 -1 945.042 469.239)" stroke="white" stroke-width="1.30675"/>
<rect x="0.653376" y="-0.653376" width="117.869" height="116.824" rx="9.80063" transform="matrix(1 0 0 -1 1063.17 469.239)" stroke="white" stroke-width="1.30675"/>
<rect x="0.653376" y="-0.653376" width="117.869" height="116.824" rx="9.80063" transform="matrix(1 0 0 -1 1181.3 469.239)" stroke="white" stroke-width="1.30675"/>
<rect x="0.653376" y="-0.653376" width="117.869" height="116.824" rx="9.80063" transform="matrix(1 0 0 -1 1299.43 469.239)" stroke="white" stroke-width="1.30675"/>
<rect x="0.653376" y="-0.653376" width="117.869" height="116.824" rx="9.80063" transform="matrix(1 0 0 -1 1417.56 469.239)" stroke="white" stroke-width="1.30675"/>
<rect x="0.653376" y="-0.653376" width="117.869" height="116.824" rx="9.80063" transform="matrix(1 0 0 -1 1535.69 469.239)" stroke="white" stroke-width="1.30675"/>
<rect x="0.653376" y="-0.653376" width="117.869" height="116.824" rx="9.80063" transform="matrix(1 0 0 -1 0 352.116)" stroke="white" stroke-width="1.30675"/>
<rect x="0.653376" y="-0.653376" width="117.869" height="116.824" rx="9.80063" transform="matrix(1 0 0 -1 118.13 352.116)" stroke="white" stroke-width="1.30675"/>
<rect x="0.653376" y="-0.653376" width="117.869" height="116.824" rx="9.80063" transform="matrix(1 0 0 -1 236.261 352.116)" stroke="white" stroke-width="1.30675"/>
<rect x="0.653376" y="-0.653376" width="117.869" height="116.824" rx="9.80063" transform="matrix(1 0 0 -1 354.391 352.116)" stroke="white" stroke-width="1.30675"/>
<rect x="0.653376" y="-0.653376" width="117.869" height="116.824" rx="9.80063" transform="matrix(1 0 0 -1 472.521 352.116)" stroke="white" stroke-width="1.30675"/>
<rect x="0.653376" y="-0.653376" width="117.869" height="116.824" rx="9.80063" transform="matrix(1 0 0 -1 590.652 352.116)" stroke="white" stroke-width="1.30675"/>
<rect x="0.653376" y="-0.653376" width="117.869" height="116.824" rx="9.80063" transform="matrix(1 0 0 -1 708.782 352.116)" stroke="white" stroke-width="1.30675"/>
<rect x="0.653376" y="-0.653376" width="117.869" height="116.824" rx="9.80063" transform="matrix(1 0 0 -1 826.912 352.116)" stroke="white" stroke-width="1.30675"/>
<rect x="0.653376" y="-0.653376" width="117.869" height="116.824" rx="9.80063" transform="matrix(1 0 0 -1 945.042 352.116)" stroke="white" stroke-width="1.30675"/>
<rect x="0.653376" y="-0.653376" width="117.869" height="116.824" rx="9.80063" transform="matrix(1 0 0 -1 1063.17 352.116)" stroke="white" stroke-width="1.30675"/>
<rect x="0.653376" y="-0.653376" width="117.869" height="116.824" rx="9.80063" transform="matrix(1 0 0 -1 1181.3 352.116)" stroke="white" stroke-width="1.30675"/>
<rect x="0.653376" y="-0.653376" width="117.869" height="116.824" rx="9.80063" transform="matrix(1 0 0 -1 1299.43 352.116)" stroke="white" stroke-width="1.30675"/>
<rect x="0.653376" y="-0.653376" width="117.869" height="116.824" rx="9.80063" transform="matrix(1 0 0 -1 1417.56 352.116)" stroke="white" stroke-width="1.30675"/>
<rect x="0.653376" y="-0.653376" width="117.869" height="116.824" rx="9.80063" transform="matrix(1 0 0 -1 1535.69 352.116)" stroke="white" stroke-width="1.30675"/>
<rect x="0.653376" y="-0.653376" width="117.869" height="116.824" rx="9.80063" transform="matrix(1 0 0 -1 0 234.992)" stroke="white" stroke-width="1.30675"/>
<rect x="0.653376" y="-0.653376" width="117.869" height="116.824" rx="9.80063" transform="matrix(1 0 0 -1 118.13 234.992)" stroke="white" stroke-width="1.30675"/>
<rect x="0.653376" y="-0.653376" width="117.869" height="116.824" rx="9.80063" transform="matrix(1 0 0 -1 236.261 234.992)" stroke="white" stroke-width="1.30675"/>
<rect x="0.653376" y="-0.653376" width="117.869" height="116.824" rx="9.80063" transform="matrix(1 0 0 -1 354.391 234.992)" stroke="white" stroke-width="1.30675"/>
<rect x="0.653376" y="-0.653376" width="117.869" height="116.824" rx="9.80063" transform="matrix(1 0 0 -1 472.521 234.992)" stroke="white" stroke-width="1.30675"/>
<rect x="0.653376" y="-0.653376" width="117.869" height="116.824" rx="9.80063" transform="matrix(1 0 0 -1 590.652 234.992)" stroke="white" stroke-width="1.30675"/>
<rect x="0.653376" y="-0.653376" width="117.869" height="116.824" rx="9.80063" transform="matrix(1 0 0 -1 708.782 234.992)" stroke="white" stroke-width="1.30675"/>
<rect x="0.653376" y="-0.653376" width="117.869" height="116.824" rx="9.80063" transform="matrix(1 0 0 -1 826.912 234.992)" stroke="white" stroke-width="1.30675"/>
<rect x="0.653376" y="-0.653376" width="117.869" height="116.824" rx="9.80063" transform="matrix(1 0 0 -1 945.042 234.992)" stroke="white" stroke-width="1.30675"/>
<rect x="0.653376" y="-0.653376" width="117.869" height="116.824" rx="9.80063" transform="matrix(1 0 0 -1 1063.17 234.992)" stroke="white" stroke-width="1.30675"/>
<rect x="0.653376" y="-0.653376" width="117.869" height="116.824" rx="9.80063" transform="matrix(1 0 0 -1 1181.3 234.992)" stroke="white" stroke-width="1.30675"/>
<rect x="0.653376" y="-0.653376" width="117.869" height="116.824" rx="9.80063" transform="matrix(1 0 0 -1 1299.43 234.992)" stroke="white" stroke-width="1.30675"/>
<rect x="0.653376" y="-0.653376" width="117.869" height="116.824" rx="9.80063" transform="matrix(1 0 0 -1 1417.56 234.992)" stroke="white" stroke-width="1.30675"/>
<rect x="0.653376" y="-0.653376" width="117.869" height="116.824" rx="9.80063" transform="matrix(1 0 0 -1 1535.69 234.992)" stroke="white" stroke-width="1.30675"/>
<rect x="0.653376" y="-0.653376" width="117.869" height="116.824" rx="9.80063" transform="matrix(1 0 0 -1 0 117.869)" stroke="white" stroke-width="1.30675"/>
<rect x="0.653376" y="-0.653376" width="117.869" height="116.824" rx="9.80063" transform="matrix(1 0 0 -1 118.13 117.869)" stroke="white" stroke-width="1.30675"/>
<rect x="0.653376" y="-0.653376" width="117.869" height="116.824" rx="9.80063" transform="matrix(1 0 0 -1 236.261 117.869)" stroke="white" stroke-width="1.30675"/>
<rect x="0.653376" y="-0.653376" width="117.869" height="116.824" rx="9.80063" transform="matrix(1 0 0 -1 354.391 117.869)" stroke="white" stroke-width="1.30675"/>
<rect x="0.653376" y="-0.653376" width="117.869" height="116.824" rx="9.80063" transform="matrix(1 0 0 -1 472.521 117.869)" stroke="white" stroke-width="1.30675"/>
<rect x="0.653376" y="-0.653376" width="117.869" height="116.824" rx="9.80063" transform="matrix(1 0 0 -1 590.652 117.869)" stroke="white" stroke-width="1.30675"/>
<rect x="0.653376" y="-0.653376" width="117.869" height="116.824" rx="9.80063" transform="matrix(1 0 0 -1 708.782 117.869)" stroke="white" stroke-width="1.30675"/>
<rect x="0.653376" y="-0.653376" width="117.869" height="116.824" rx="9.80063" transform="matrix(1 0 0 -1 826.912 117.869)" stroke="white" stroke-width="1.30675"/>
<rect x="0.653376" y="-0.653376" width="117.869" height="116.824" rx="9.80063" transform="matrix(1 0 0 -1 945.042 117.869)" stroke="white" stroke-width="1.30675"/>
<rect x="0.653376" y="-0.653376" width="117.869" height="116.824" rx="9.80063" transform="matrix(1 0 0 -1 1063.17 117.869)" stroke="white" stroke-width="1.30675"/>
<rect x="0.653376" y="-0.653376" width="117.869" height="116.824" rx="9.80063" transform="matrix(1 0 0 -1 1181.3 117.869)" stroke="white" stroke-width="1.30675"/>
<rect x="0.653376" y="-0.653376" width="117.869" height="116.824" rx="9.80063" transform="matrix(1 0 0 -1 1299.43 117.869)" stroke="white" stroke-width="1.30675"/>
<rect x="0.653376" y="-0.653376" width="117.869" height="116.824" rx="9.80063" transform="matrix(1 0 0 -1 1417.56 117.869)" stroke="white" stroke-width="1.30675"/>
<rect x="0.653376" y="-0.653376" width="117.869" height="116.824" rx="9.80063" transform="matrix(1 0 0 -1 1535.69 117.869)" stroke="white" stroke-width="1.30675"/>
<g opacity="0.6">
<g filter="url(#filter0_f_8_30416)">
<circle cx="319.465" cy="223.465" r="141.465" fill="#928771"/>
</g>
<g filter="url(#filter1_f_8_30416)">
<circle cx="436.929" cy="233.149" r="141.465" fill="#FDFF91" fill-opacity="0.5"/>
</g>
</g>
<defs>
<filter id="filter0_f_8_30416" x="-187.528" y="-283.528" width="1013.99" height="1013.99" filterUnits="userSpaceOnUse" color-interpolation-filters="sRGB">
<feFlood flood-opacity="0" result="BackgroundImageFix"/>
<feBlend mode="normal" in="SourceGraphic" in2="BackgroundImageFix" result="shape"/>
<feGaussianBlur stdDeviation="182.764" result="effect1_foregroundBlur_8_30416"/>
</filter>
<filter id="filter1_f_8_30416" x="-70.0638" y="-273.844" width="1013.99" height="1013.99" filterUnits="userSpaceOnUse" color-interpolation-filters="sRGB">
<feFlood flood-opacity="0" result="BackgroundImageFix"/>
<feBlend mode="normal" in="SourceGraphic" in2="BackgroundImageFix" result="shape"/>
<feGaussianBlur stdDeviation="182.764" result="effect1_foregroundBlur_8_30416"/>
</filter>
</defs>
</svg>
